<svg width="50" height="50" xmlns="http://www.w3.org/2000/svg" xmlns:xlink="http://www.w3.org/1999/xlink"><defs><filter x="-20%" y="-15%" width="140%" height="140%" filterUnits="objectBoundingBox" id="a"><feOffset dy="2" in="SourceAlpha" result="shadowOffsetOuter1"/><feGaussianBlur stdDeviation="2" in="shadowOffsetOuter1" result="shadowBlurOuter1"/><feColorMatrix values="0 0 0 0 0 0 0 0 0 0 0 0 0 0 0 0 0 0 0.3 0" in="shadowBlurOuter1" result="shadowMatrixOuter1"/><feMerge><feMergeNode in="shadowMatrixOuter1"/><feMergeNode in="SourceGraphic"/></feMerge></filter><circle id="b" cx="20" cy="20" r="20"/><circle id="d" cx="20" cy="20" r="17"/></defs><g transform="translate(5 3)" fill="none" fill-rule="evenodd"><g filter="url(#a)"><mask id="c" fill="#fff"><use xlink:href="#b"/></mask><use fill="#BB0826" xlink:href="#b"/><circle stroke="#FFF" cx="20" cy="20" r="20.5"/></g><mask id="e" fill="#fff"><use xlink:href="#d"/></mask><g mask="url(#e)" stroke="#FFF" stroke-width="2"><path d="M32.396 35.08L31.547 30c-.324-4.038-3.807-7.342-7.739-7.342h-7.624c-3.933 0-7.415 3.304-7.738 7.342l-.85 5.08c-.324 4.039 2.629 7.342 6.561 7.342h11.678c3.932 0 6.885-3.303 6.561-7.341zM26.334 13.553c0 3.554-2.793 6.433-6.243 6.433-3.449 0-6.243-2.88-6.243-6.433 0-3.551 2.794-6.433 6.243-6.433 3.45 0 6.243 2.882 6.243 6.433z"/></g></g></svg>